<svg version="1.1" xmlns="http://www.w3.org/2000/svg" viewBox="0 0 851.9895629882812 478" width="851.9895629882812" height="478">
  <!-- svg-source:excalidraw -->
  
  <defs>
    <style class="style-fonts">
      @font-face {
        font-family: "Virgil";
        src: url("https://excalidraw.com/Virgil.woff2");
      }
      @font-face {
        font-family: "Cascadia";
        src: url("https://excalidraw.com/Cascadia.woff2");
      }
      @font-face {
        font-family: "Assistant";
        src: url("https://excalidraw.com/Assistant-Regular.woff2");
      }
    </style>
    
  </defs>
  <rect x="0" y="0" width="851.9895629882812" height="478" fill="#ffffff"></rect><g stroke-linecap="round" transform="translate(165 27) rotate(0 36 29.5)"><path d="M14.75 0 C26.07 -0.3, 38.75 0.09, 57.25 0 M14.75 0 C28.15 -0.15, 41.54 -1.37, 57.25 0 M57.25 0 C68.56 0.66, 72.47 6.48, 72 14.75 M57.25 0 C68.9 2.05, 70.85 5.84, 72 14.75 M72 14.75 C71.97 24.05, 71.51 31.86, 72 44.25 M72 14.75 C71.16 23.57, 71.42 33.31, 72 44.25 M72 44.25 C71.17 54.41, 67.23 58.33, 57.25 59 M72 44.25 C72.6 56.04, 67.56 58.51, 57.25 59 M57.25 59 C45.69 58.64, 31.36 59.48, 14.75 59 M57.25 59 C43.43 58.16, 28.66 59.18, 14.75 59 M14.75 59 C5.85 58.09, 1.5 53.82, 0 44.25 M14.75 59 C3.37 59.88, -2.05 54.23, 0 44.25 M0 44.25 C1.88 37.15, -1.59 29.25, 0 14.75 M0 44.25 C-0.86 33.42, 0.9 24.1, 0 14.75 M0 14.75 C-0.87 5.68, 4.21 0.49, 14.75 0 M0 14.75 C1.22 6.79, 6.92 -0.95, 14.75 0" stroke="#1e1e1e" stroke-width="2" fill="none"></path></g><g stroke-linecap="round" transform="translate(166 108.5) rotate(0 36 29.5)"><path d="M14.75 0 C23.46 -1.5, 35.2 -0.69, 57.25 0 M14.75 0 C31.14 -0.47, 47.36 0.02, 57.25 0 M57.25 0 C67.1 1.22, 70.73 3.21, 72 14.75 M57.25 0 C65.94 1.12, 71.17 3.52, 72 14.75 M72 14.75 C73.66 19.3, 73.75 26.62, 72 44.25 M72 14.75 C72.25 21.29, 71.8 27.82, 72 44.25 M72 44.25 C73.22 52.41, 66.47 58.64, 57.25 59 M72 44.25 C74.02 53.36, 69.35 58.28, 57.25 59 M57.25 59 C46.8 60.66, 32.39 59.62, 14.75 59 M57.25 59 C48.94 59.63, 39.05 59.07, 14.75 59 M14.75 59 C5.67 59.27, 0.87 52.61, 0 44.25 M14.75 59 C5.07 58.47, 1.41 54.87, 0 44.25 M0 44.25 C-1.55 36.02, -0.86 27.74, 0 14.75 M0 44.25 C-0.18 35.87, 0.01 27.88, 0 14.75 M0 14.75 C-1.45 3.56, 5.19 -1.36, 14.75 0 M0 14.75 C-1.87 3, 5.31 -0.27, 14.75 0" stroke="#1e1e1e" stroke-width="2" fill="none"></path></g><g stroke-linecap="round" transform="translate(167 194.5) rotate(0 36 29.5)"><path d="M14.75 0 C29.98 -0.3, 42.9 0.41, 57.25 0 M14.75 0 C28.13 0.08, 41.99 0.65, 57.25 0 M57.25 0 C67.14 -1.34, 70.11 3.17, 72 14.75 M57.25 0 C67.89 -1.22, 73.57 4.49, 72 14.75 M72 14.75 C72.06 23.76, 72.68 31.24, 72 44.25 M72 14.75 C71.23 20.76, 72.21 28.32, 72 44.25 M72 44.25 C72.36 56.02, 68.69 58.44, 57.25 59 M72 44.25 C72.64 53.09, 68.59 57.74, 57.25 59 M57.25 59 C43.83 56.74, 30.54 58.85, 14.75 59 M57.25 59 C47.18 58.45, 38.23 57.85, 14.75 59 M14.75 59 C4.52 60.66, -0.13 55.45, 0 44.25 M14.75 59 C5.44 59.91, 2.09 53.99, 0 44.25 M0 44.25 C-2.17 37.52, -2.21 26.3, 0 14.75 M0 44.25 C0.8 37.93, 0.07 30.11, 0 14.75 M0 14.75 C-1.68 6.04, 3.92 1.07, 14.75 0 M0 14.75 C2.28 4.57, 4.84 0.37, 14.75 0" stroke="#1e1e1e" stroke-width="2" fill="none"></path></g><g stroke-linecap="round" transform="translate(167 287.5) rotate(0 36 29.5)"><path d="M14.75 0 C28.03 -0.64, 40.12 2.34, 57.25 0 M14.75 0 C26.03 -0.53, 39.88 -0.3, 57.25 0 M57.25 0 C65.56 1.47, 73.98 4.4, 72 14.75 M57.25 0 C67.32 -0.31, 73.54 3.3, 72 14.75 M72 14.75 C70.87 19.21, 72.47 28.45, 72 44.25 M72 14.75 C72.21 23.18, 71.83 34.25, 72 44.25 M72 44.25 C70.49 55.48, 68.57 60, 57.25 59 M72 44.25 C72.2 52.76, 66.38 60.4, 57.25 59 M57.25 59 C46.03 57.04, 32.9 57.69, 14.75 59 M57.25 59 C42.62 59.28, 30.48 59.48, 14.75 59 M14.75 59 C3.54 57.88, -1.7 54.01, 0 44.25 M14.75 59 C5.8 61.24, -0.8 52.12, 0 44.25 M0 44.25 C-1.52 33.73, 1.73 25.25, 0 14.75 M0 44.25 C-0.34 33.04, 0.18 21.84, 0 14.75 M0 14.75 C-1.89 6.4, 3.69 0.98, 14.75 0 M0 14.75 C-0.7 7.17, 4.36 0.04, 14.75 0" stroke="#1e1e1e" stroke-width="2" fill="none"></path></g><g stroke-linecap="round" transform="translate(510 27.25) rotate(0 36 29.5)"><path d="M14.75 0 C25.12 -0.15, 32.65 1.9, 57.25 0 M14.75 0 C24.44 0.56, 32.45 -0.66, 57.25 0 M57.25 0 C66.92 -1.57, 70.26 4.93, 72 14.75 M57.25 0 C65.04 -0.23, 71.22 5.71, 72 14.75 M72 14.75 C73.1 27.43, 73.29 36.62, 72 44.25 M72 14.75 C72.46 21.23, 71.92 27.23, 72 44.25 M72 44.25 C73.65 52.18, 68.78 60.31, 57.25 59 M72 44.25 C73.2 54.47, 68.98 60.93, 57.25 59 M57.25 59 C39.64 59.4, 25.89 58.68, 14.75 59 M57.25 59 C41.03 58.5, 26.45 58.91, 14.75 59 M14.75 59 C4.25 57.14, -0.55 53.04, 0 44.25 M14.75 59 C5.85 60.91, 1.13 51.94, 0 44.25 M0 44.25 C0.34 35.85, 0.71 30.42, 0 14.75 M0 44.25 C0.14 37.69, -0.24 30.26, 0 14.75 M0 14.75 C-0.68 6.73, 4.5 -1.22, 14.75 0 M0 14.75 C-1.91 2.71, 4.8 0.94, 14.75 0" stroke="#1e1e1e" stroke-width="2" fill="none"></path></g><g stroke-linecap="round" transform="translate(511 108.75) rotate(0 36 29.5)"><path d="M14.75 0 C25.82 1.95, 38.88 -0.2, 57.25 0 M14.75 0 C30.05 -0.72, 46.17 -1.15, 57.25 0 M57.25 0 C65.35 0.02, 70.23 4.71, 72 14.75 M57.25 0 C66.3 0.79, 73.77 3.88, 72 14.75 M72 14.75 C73.61 23.21, 70.61 31.15, 72 44.25 M72 14.75 C72.29 25.57, 73.01 36.62, 72 44.25 M72 44.25 C73.7 55.39, 68.12 59.34, 57.25 59 M72 44.25 C73.89 56.02, 68.77 57.58, 57.25 59 M57.25 59 C46.75 58.99, 36.69 60.82, 14.75 59 M57.25 59 C42.21 58.38, 27.05 57.77, 14.75 59 M14.75 59 C4.36 57.96, 0.81 55.74, 0 44.25 M14.75 59 C6.04 56.86, -1.1 52.54, 0 44.25 M0 44.25 C0.49 38.93, -1.01 31.98, 0 14.75 M0 44.25 C-0.23 38.45, -0.4 31.98, 0 14.75 M0 14.75 C-0.41 3.7, 3.26 -1.92, 14.75 0 M0 14.75 C-0.12 5.86, 6.85 -0.12, 14.75 0" stroke="#1e1e1e" stroke-width="2" fill="none"></path></g><g stroke-linecap="round" transform="translate(512 194.75) rotate(0 36 29.5)"><path d="M14.75 0 C25.49 -0.64, 41.09 0.82, 57.25 0 M14.75 0 C31.08 -0.64, 46.7 0.16, 57.25 0 M57.25 0 C65.31 -0.2, 71.32 5.6, 72 14.75 M57.25 0 C68.85 -1.04, 71.98 6.34, 72 14.75 M72 14.75 C70.64 24.65, 73.95 38.34, 72 44.25 M72 14.75 C72.85 22.5, 72.88 32.8, 72 44.25 M72 44.25 C73.04 54.42, 68.73 60.68, 57.25 59 M72 44.25 C73.69 52.67, 66.08 57, 57.25 59 M57.25 59 C44.48 60.67, 30.29 57.22, 14.75 59 M57.25 59 C47.22 57.94, 37.59 58.35, 14.75 59 M14.75 59 C5.73 60.66, 0.98 52.22, 0 44.25 M14.75 59 C3.81 57.45, -1.94 54.24, 0 44.25 M0 44.25 C-1.07 37.29, -1.61 29.8, 0 14.75 M0 44.25 C-0.29 33.87, -0.16 21.06, 0 14.75 M0 14.75 C-1.66 3, 4.82 0.82, 14.75 0 M0 14.75 C1.93 4.79, 3.63 -1.95, 14.75 0" stroke="#1e1e1e" stroke-width="2" fill="none"></path></g><g stroke-linecap="round" transform="translate(512 287.75) rotate(0 36 29.5)"><path d="M14.75 0 C32.99 1.28, 50.13 -0.85, 57.25 0 M14.75 0 C25.12 0.34, 36.33 0.23, 57.25 0 M57.25 0 C66.4 0.69, 73.54 4.01, 72 14.75 M57.25 0 C67.07 1.42, 73.79 6.56, 72 14.75 M72 14.75 C73.51 24.35, 71.67 31.58, 72 44.25 M72 14.75 C73.09 22.51, 72.76 29.14, 72 44.25 M72 44.25 C73.65 55.76, 68.55 57.77, 57.25 59 M72 44.25 C70.99 52.09, 67.76 59.44, 57.25 59 M57.25 59 C45.82 57.61, 30.89 59.14, 14.75 59 M57.25 59 C45.55 58.08, 34.81 59.44, 14.75 59 M14.75 59 C5.9 57.14, -0.96 52.74, 0 44.25 M14.75 59 C2.98 59.16, -1.11 54.67, 0 44.25 M0 44.25 C-1.39 34.27, 1.8 23.13, 0 14.75 M0 44.25 C-0.11 32.46, -0.73 20.92, 0 14.75 M0 14.75 C-0.1 5.74, 6.59 -0.11, 14.75 0 M0 14.75 C-1.28 2.97, 4.01 1.74, 14.75 0" stroke="#1e1e1e" stroke-width="2" fill="none"></path></g><g stroke-linecap="round" transform="translate(307 27) rotate(0 73.5 72)"><path d="M32 0 C59.28 -1.43, 86.78 -0.97, 115 0 M32 0 C49.7 0.67, 65.68 0.76, 115 0 M115 0 C134.82 -1.96, 146.61 10.59, 147 32 M115 0 C135.93 1.9, 148.59 10.24, 147 32 M147 32 C146.64 62.12, 148.89 89.95, 147 112 M147 32 C146.11 56.95, 145.7 82.25, 147 112 M147 112 C146.28 134.74, 137.11 144.11, 115 144 M147 112 C147 135.27, 137.09 144.19, 115 144 M115 144 C94.4 145.59, 72.64 142.81, 32 144 M115 144 C86.62 145.05, 56.5 143.99, 32 144 M32 144 C12.31 142.08, -1.03 134.13, 0 112 M32 144 C12.67 145.57, -1.88 134.1, 0 112 M0 112 C-1.49 91.53, -0.47 66.08, 0 32 M0 112 C-0.45 87.46, 0.23 64, 0 32 M0 32 C1.25 11.73, 9.91 1.9, 32 0 M0 32 C-0.89 9.05, 10.8 -2.26, 32 0" stroke="#1e1e1e" stroke-width="2" fill="none"></path></g><g stroke-linecap="round" transform="translate(301.5 203) rotate(0 73.5 72)"><path d="M32 0 C49.31 0.94, 68.04 0.59, 115 0 M32 0 C64.54 0.1, 95.88 -0.5, 115 0 M115 0 C135.2 0.23, 146.44 10.75, 147 32 M115 0 C135.54 1.61, 145.55 12.3, 147 32 M147 32 C146.11 55.49, 146.91 82.27, 147 112 M147 32 C146.81 60.69, 146.54 88.3, 147 112 M147 112 C145.33 132.06, 135.03 143.76, 115 144 M147 112 C147.11 132.35, 134.76 143.83, 115 144 M115 144 C97.46 145.15, 81.65 145.46, 32 144 M115 144 C95.97 143.13, 74.73 143.53, 32 144 M32 144 C12.38 143.81, 0.89 132.6, 0 112 M32 144 C8.41 144.7, -1.26 132.99, 0 112 M0 112 C0.73 86.45, 0.49 61.25, 0 32 M0 112 C-0.03 83.88, 0.32 54.77, 0 32 M0 32 C0.95 11.42, 9.44 -1.67, 32 0 M0 32 C0.74 11.87, 12.67 -1.32, 32 0" stroke="#1e1e1e" stroke-width="2" fill="none"></path></g><g stroke-linecap="round"><g transform="translate(244 42) rotate(0 31 -0.5)"><path d="M0.45 -0.81 C10.92 -0.97, 52.69 -1.13, 63.02 -1.16 M-0.77 1.38 C9.61 1.43, 52.16 0.46, 62.61 0.29" stroke="#e03131" stroke-width="2" fill="none"></path></g><g transform="translate(244 42) rotate(0 31 -0.5)"><path d="M39.29 9.3 C45.33 8.06, 53.78 4.23, 62.61 0.29 M39.29 9.3 C46.85 7.25, 53.63 4.71, 62.61 0.29" stroke="#e03131" stroke-width="2" fill="none"></path></g><g transform="translate(244 42) rotate(0 31 -0.5)"><path d="M38.95 -7.8 C45.07 -3.63, 53.63 -2.06, 62.61 0.29 M38.95 -7.8 C46.69 -4.71, 53.57 -2.12, 62.61 0.29" stroke="#e03131" stroke-width="2" fill="none"></path></g></g><mask></mask><g stroke-linecap="round"><g transform="translate(240 79) rotate(0 32 75.5)"><path d="M-0.31 0.03 C10.19 25.37, 52.96 126.73, 63.73 152.09 M1.73 -0.99 C11.99 24.02, 52.31 125.3, 62.64 150.54" stroke="#1971c2" stroke-width="2" fill="none"></path></g><g transform="translate(240 79) rotate(0 32 75.5)"><path d="M45.92 131.94 C52.04 138.26, 59.84 145.96, 62.64 150.54 M45.92 131.94 C53.4 139.91, 58.61 146.45, 62.64 150.54" stroke="#1971c2" stroke-width="2" fill="none"></path></g><g transform="translate(240 79) rotate(0 32 75.5)"><path d="M61.79 125.55 C62.17 134.14, 64.24 144.15, 62.64 150.54 M61.79 125.55 C63 136.08, 61.92 145.15, 62.64 150.54" stroke="#1971c2" stroke-width="2" fill="none"></path></g></g><mask></mask><g stroke-linecap="round"><g transform="translate(240 130) rotate(0 32.5 -29)"><path d="M0.91 0.17 C11.51 -9.34, 53.98 -47.54, 64.55 -57.24 M-0.07 -0.79 C10.25 -10.62, 52.82 -49.64, 63.37 -58.97" stroke="#f08c00" stroke-width="2" fill="none"></path></g><g transform="translate(240 130) rotate(0 32.5 -29)"><path d="M51.67 -36.87 C56.41 -46.07, 61.82 -54.82, 63.37 -58.97 M51.67 -36.87 C54.41 -42.42, 57.82 -49.78, 63.37 -58.97" stroke="#f08c00" stroke-width="2" fill="none"></path></g><g transform="translate(240 130) rotate(0 32.5 -29)"><path d="M40.2 -49.56 C49.27 -54.04, 59.01 -57.99, 63.37 -58.97 M40.2 -49.56 C46.38 -51.29, 53.18 -54.9, 63.37 -58.97" stroke="#f08c00" stroke-width="2" fill="none"></path></g></g><mask></mask><g stroke-linecap="round"><g transform="translate(239 158) rotate(0 31 51)"><path d="M0.63 -0.28 C11.11 16.83, 52.35 84.76, 62.49 101.79 M-0.49 -1.47 C9.89 15.9, 51.65 85.78, 61.8 103.22" stroke="#2f9e44" stroke-width="2" fill="none"></path></g><g transform="translate(239 158) rotate(0 31 51)"><path d="M42.48 87.34 C47.14 92.36, 52.5 94.94, 61.8 103.22 M42.48 87.34 C47.33 92.94, 54.43 96.38, 61.8 103.22" stroke="#2f9e44" stroke-width="2" fill="none"></path></g><g transform="translate(239 158) rotate(0 31 51)"><path d="M57.21 78.64 C57.81 86.1, 59.17 91.04, 61.8 103.22 M57.21 78.64 C57.74 86.67, 60.59 92.62, 61.8 103.22" stroke="#2f9e44" stroke-width="2" fill="none"></path></g></g><mask></mask><g stroke-linecap="round"><g transform="translate(241 208) rotate(0 30 -49.5)"><path d="M-0.3 -1.14 C9.69 -17.42, 50.84 -81.73, 61.08 -98.13 M1.74 0.88 C11.57 -15.69, 50.83 -83.23, 60.7 -99.8" stroke="#1e1e1e" stroke-width="2" fill="none"></path></g><g transform="translate(241 208) rotate(0 30 -49.5)"><path d="M56.17 -75.22 C56.15 -83.06, 61.27 -92.59, 60.7 -99.8 M56.17 -75.22 C57.57 -81.78, 59.4 -88.36, 60.7 -99.8" stroke="#1e1e1e" stroke-width="2" fill="none"></path></g><g transform="translate(241 208) rotate(0 30 -49.5)"><path d="M41.43 -83.88 C47.17 -88.29, 58.09 -94.41, 60.7 -99.8 M41.43 -83.88 C46.49 -88.14, 52.04 -92.54, 60.7 -99.8" stroke="#1e1e1e" stroke-width="2" fill="none"></path></g></g><mask></mask><g stroke-linecap="round"><g transform="translate(239 296) rotate(0 32.5 -70)"><path d="M0.36 0.8 C11.49 -22.79, 54.72 -117.63, 65.65 -141.1 M-0.91 0.17 C10.22 -23.35, 53.95 -116.99, 65.05 -140.14" stroke="#1e1e1e" stroke-width="2" fill="none"></path></g><g transform="translate(239 296) rotate(0 32.5 -70)"><path d="M62.75 -115.24 C64.46 -119.27, 61.77 -123.89, 65.05 -140.14 M62.75 -115.24 C64.16 -121.83, 64.05 -129.31, 65.05 -140.14" stroke="#1e1e1e" stroke-width="2" fill="none"></path></g><g transform="translate(239 296) rotate(0 32.5 -70)"><path d="M47.28 -122.55 C52.2 -125.12, 52.68 -128.24, 65.05 -140.14 M47.28 -122.55 C53.25 -127, 57.76 -132.3, 65.05 -140.14" stroke="#1e1e1e" stroke-width="2" fill="none"></path></g></g><mask></mask><g stroke-linecap="round"><g transform="translate(240 241) rotate(0 29 22)"><path d="M-1.19 -0.49 C8.34 6.83, 47.34 36.25, 57.16 43.85 M0.39 -1.79 C10.29 5.72, 50.03 37.79, 59.43 45.31" stroke="#1e1e1e" stroke-width="2" fill="none"></path></g><g transform="translate(240 241) rotate(0 29 22)"><path d="M35.76 37.27 C42.03 38.51, 49.68 41.86, 59.43 45.31 M35.76 37.27 C45.16 40.85, 54.85 43.58, 59.43 45.31" stroke="#1e1e1e" stroke-width="2" fill="none"></path></g><g transform="translate(240 241) rotate(0 29 22)"><path d="M46.47 23.93 C49.52 29.06, 53.98 36.4, 59.43 45.31 M46.47 23.93 C51.65 32.82, 57.13 40.79, 59.43 45.31" stroke="#1e1e1e" stroke-width="2" fill="none"></path></g></g><mask></mask><g stroke-linecap="round"><g transform="translate(242 330) rotate(0 29.5 -0.5)"><path d="M0.84 1.01 C10.9 1.01, 50.5 0.07, 60.15 -0.2 M-0.18 0.49 C9.84 0.18, 50.14 -1.37, 59.8 -1.91" stroke="#1e1e1e" stroke-width="2" fill="none"></path></g><g transform="translate(242 330) rotate(0 29.5 -0.5)"><path d="M36.72 7.7 C44.98 6.72, 51.18 1.59, 59.8 -1.91 M36.72 7.7 C44.23 4.72, 53.05 0.5, 59.8 -1.91" stroke="#1e1e1e" stroke-width="2" fill="none"></path></g><g transform="translate(242 330) rotate(0 29.5 -0.5)"><path d="M35.95 -9.38 C44.39 -5.51, 50.82 -5.79, 59.8 -1.91 M35.95 -9.38 C43.55 -6.69, 52.62 -5.24, 59.8 -1.91" stroke="#1e1e1e" stroke-width="2" fill="none"></path></g></g><mask></mask><g stroke-linecap="round"><g transform="translate(451 43) rotate(0 27 -1)"><path d="M-0.28 0.26 C8.73 -0.12, 43.86 -2.16, 52.96 -2.59 M1.78 -0.65 C11.24 -0.86, 46.46 -1.27, 55.12 -1.37" stroke="#e03131" stroke-width="2" fill="none"></path></g><g transform="translate(451 43) rotate(0 27 -1)"><path d="M31.73 7.46 C37.08 3.93, 40.56 4.35, 55.12 -1.37 M31.73 7.46 C38.29 5.51, 44.26 2.25, 55.12 -1.37" stroke="#e03131" stroke-width="2" fill="none"></path></g><g transform="translate(451 43) rotate(0 27 -1)"><path d="M31.53 -9.64 C36.88 -9.59, 40.4 -5.58, 55.12 -1.37 M31.53 -9.64 C38.29 -6.98, 44.31 -5.63, 55.12 -1.37" stroke="#e03131" stroke-width="2" fill="none"></path></g></g><mask></mask><g stroke-linecap="round"><g transform="translate(453 70) rotate(0 30.5 24.5)"><path d="M-0.38 0.49 C9.86 8.98, 50.46 41.58, 60.52 49.8 M1.62 -0.29 C11.75 7.95, 49.21 40.06, 59.32 48.09" stroke="#e03131" stroke-width="2" fill="none"></path></g><g transform="translate(453 70) rotate(0 30.5 24.5)"><path d="M35.77 39.69 C41.7 40.81, 47.38 41.69, 59.32 48.09 M35.77 39.69 C45.13 41.83, 52.67 44.98, 59.32 48.09" stroke="#e03131" stroke-width="2" fill="none"></path></g><g transform="translate(453 70) rotate(0 30.5 24.5)"><path d="M46.68 26.52 C50.08 30.5, 53.37 34.29, 59.32 48.09 M46.68 26.52 C52.12 33.52, 55.66 41.5, 59.32 48.09" stroke="#e03131" stroke-width="2" fill="none"></path></g></g><mask></mask><g stroke-linecap="round"><g transform="translate(454 114) rotate(0 31.5 45)"><path d="M-0.81 -0.59 C9.78 14.57, 51.79 75.21, 62.42 90.11 M0.96 1.71 C11.44 17.16, 50.96 77.07, 61.17 91.71" stroke="#f08c00" stroke-width="2" fill="none"></path></g><g transform="translate(454 114) rotate(0 31.5 45)"><path d="M40.93 77.03 C44.02 79.24, 49.37 83.22, 61.17 91.71 M40.93 77.03 C45.06 79.6, 49.86 82.42, 61.17 91.71" stroke="#f08c00" stroke-width="2" fill="none"></path></g><g transform="translate(454 114) rotate(0 31.5 45)"><path d="M55.1 67.45 C55.2 71.54, 57.62 77.5, 61.17 91.71 M55.1 67.45 C56.33 72.1, 58.27 76.86, 61.17 91.71" stroke="#f08c00" stroke-width="2" fill="none"></path></g></g><mask></mask><g stroke-linecap="round"><g transform="translate(452 154) rotate(0 28.5 74)"><path d="M-0.34 -0.03 C9.4 24.8, 48.52 124.21, 58.19 148.97 M1.68 -1.09 C11.39 23.42, 48.61 122.76, 57.87 147.36" stroke="#1e1e1e" stroke-width="2" fill="none"></path></g><g transform="translate(452 154) rotate(0 28.5 74)"><path d="M41.6 128.37 C46.03 135.64, 52.18 139.98, 57.87 147.36 M41.6 128.37 C48.05 134.19, 52.25 141.37, 57.87 147.36" stroke="#1e1e1e" stroke-width="2" fill="none"></path></g><g transform="translate(452 154) rotate(0 28.5 74)"><path d="M57.61 122.36 C57.63 131.23, 59.37 137.24, 57.87 147.36 M57.61 122.36 C58.57 130.28, 57.27 139.52, 57.87 147.36" stroke="#1e1e1e" stroke-width="2" fill="none"></path></g></g><mask></mask><g stroke-linecap="round"><g transform="translate(449 330) rotate(0 29.5 2)"><path d="M-1.19 0.02 C8.95 0.53, 49.9 2.77, 60.04 3.25 M0.39 -1.02 C10.52 -0.38, 49.83 3.61, 59.64 4.39" stroke="#1e1e1e" stroke-width="4" fill="none"></path></g><g transform="translate(449 330) rotate(0 29.5 2)"><path d="M35.47 10.77 C41.26 11.22, 45.74 9.13, 59.64 4.39 M35.47 10.77 C40.85 9.07, 45.76 7.52, 59.64 4.39" stroke="#1e1e1e" stroke-width="4" fill="none"></path></g><g transform="translate(449 330) rotate(0 29.5 2)"><path d="M37.03 -6.26 C42.47 -1.76, 46.58 0.2, 59.64 4.39 M37.03 -6.26 C41.94 -4.39, 46.52 -2.35, 59.64 4.39" stroke="#1e1e1e" stroke-width="4" fill="none"></path></g></g><mask></mask><g stroke-linecap="round"><g transform="translate(450 293) rotate(0 29 -24.5)"><path d="M-0.74 0.64 C8.81 -7.59, 48.75 -40.47, 58.47 -48.86 M1.08 -0.07 C10.4 -8.12, 48.51 -39.14, 57.76 -47.25" stroke="#1971c2" stroke-width="2" fill="none"></path></g><g transform="translate(450 293) rotate(0 29 -24.5)"><path d="M45.29 -25.59 C51.25 -33.39, 55.4 -43.53, 57.76 -47.25 M45.29 -25.59 C48.39 -31.15, 51.78 -35.41, 57.76 -47.25" stroke="#1971c2" stroke-width="2" fill="none"></path></g><g transform="translate(450 293) rotate(0 29 -24.5)"><path d="M34.28 -38.67 C44.7 -41.18, 53.25 -46.09, 57.76 -47.25 M34.28 -38.67 C40.01 -41.08, 46.06 -42.17, 57.76 -47.25" stroke="#1971c2" stroke-width="2" fill="none"></path></g></g><mask></mask><g stroke-linecap="round"><g transform="translate(447 255) rotate(0 34 -46.5)"><path d="M0.53 -0.46 C12.05 -16.04, 57.15 -77.74, 68.34 -93.27 M-0.65 -1.75 C10.81 -17.16, 56.34 -76.72, 67.57 -91.88" stroke="#1e1e1e" stroke-width="2" fill="none"></path></g><g transform="translate(447 255) rotate(0 34 -46.5)"><path d="M60.25 -67.97 C61.16 -73.03, 63.19 -79.74, 67.57 -91.88 M60.25 -67.97 C62.27 -73.92, 64.51 -79.09, 67.57 -91.88" stroke="#1e1e1e" stroke-width="2" fill="none"></path></g><g transform="translate(447 255) rotate(0 34 -46.5)"><path d="M46.6 -78.27 C50.72 -80.98, 55.94 -85.27, 67.57 -91.88 M46.6 -78.27 C51.94 -81.73, 57.53 -84.37, 67.57 -91.88" stroke="#1e1e1e" stroke-width="2" fill="none"></path></g></g><mask></mask><g stroke-linecap="round"><g transform="translate(445 219) rotate(0 30.5 -74)"><path d="M0.71 -0.39 C10.8 -25.12, 51.12 -124.04, 61.05 -148.84 M-0.37 -1.63 C9.52 -26.2, 49.6 -123.26, 60.13 -147.74" stroke="#1e1e1e" stroke-width="2" fill="none"></path></g><g transform="translate(445 219) rotate(0 30.5 -74)"><path d="M58.91 -122.77 C58.77 -131.28, 58.43 -141.15, 60.13 -147.74 M58.91 -122.77 C58.91 -127.41, 59.83 -133.01, 60.13 -147.74" stroke="#1e1e1e" stroke-width="2" fill="none"></path></g><g transform="translate(445 219) rotate(0 30.5 -74)"><path d="M43.14 -129.4 C48.4 -135.72, 53.48 -143.32, 60.13 -147.74 M43.14 -129.4 C46.37 -132.6, 50.46 -136.87, 60.13 -147.74" stroke="#1e1e1e" stroke-width="2" fill="none"></path></g></g><mask></mask><g transform="translate(139 31) rotate(0 9.968040466308594 87.5)"><text x="0" y="24.528" font-family="Virgil, Segoe UI Emoji" font-size="28px" fill="#1e1e1e" text-anchor="start" style="white-space: pre;" direction="ltr" dominant-baseline="alphabetic">0</text><text x="0" y="59.528" font-family="Virgil, Segoe UI Emoji" font-size="28px" fill="#1e1e1e" text-anchor="start" style="white-space: pre;" direction="ltr" dominant-baseline="alphabetic">1</text><text x="0" y="94.52799999999999" font-family="Virgil, Segoe UI Emoji" font-size="28px" fill="#1e1e1e" text-anchor="start" style="white-space: pre;" direction="ltr" dominant-baseline="alphabetic">2</text><text x="0" y="129.528" font-family="Virgil, Segoe UI Emoji" font-size="28px" fill="#1e1e1e" text-anchor="start" style="white-space: pre;" direction="ltr" dominant-baseline="alphabetic">3</text><text x="0" y="164.528" font-family="Virgil, Segoe UI Emoji" font-size="28px" fill="#1e1e1e" text-anchor="start" style="white-space: pre;" direction="ltr" dominant-baseline="alphabetic"></text></g><g transform="translate(138 204) rotate(0 8.960037231445312 70)"><text x="0" y="24.528" font-family="Virgil, Segoe UI Emoji" font-size="28px" fill="#1e1e1e" text-anchor="start" style="white-space: pre;" direction="ltr" dominant-baseline="alphabetic">4</text><text x="0" y="59.528" font-family="Virgil, Segoe UI Emoji" font-size="28px" fill="#1e1e1e" text-anchor="start" style="white-space: pre;" direction="ltr" dominant-baseline="alphabetic">5</text><text x="0" y="94.52799999999999" font-family="Virgil, Segoe UI Emoji" font-size="28px" fill="#1e1e1e" text-anchor="start" style="white-space: pre;" direction="ltr" dominant-baseline="alphabetic">6</text><text x="0" y="129.528" font-family="Virgil, Segoe UI Emoji" font-size="28px" fill="#1e1e1e" text-anchor="start" style="white-space: pre;" direction="ltr" dominant-baseline="alphabetic">7</text></g><g transform="translate(610 22) rotate(0 9.632041931152344 70)"><text x="0" y="24.528" font-family="Virgil, Segoe UI Emoji" font-size="28px" fill="#1e1e1e" text-anchor="start" style="white-space: pre;" direction="ltr" dominant-baseline="alphabetic">0</text><text x="0" y="59.528" font-family="Virgil, Segoe UI Emoji" font-size="28px" fill="#1e1e1e" text-anchor="start" style="white-space: pre;" direction="ltr" dominant-baseline="alphabetic">0</text><text x="0" y="94.52799999999999" font-family="Virgil, Segoe UI Emoji" font-size="28px" fill="#1e1e1e" text-anchor="start" style="white-space: pre;" direction="ltr" dominant-baseline="alphabetic">0</text><text x="0" y="129.528" font-family="Virgil, Segoe UI Emoji" font-size="28px" fill="#1e1e1e" text-anchor="start" style="white-space: pre;" direction="ltr" dominant-baseline="alphabetic">0</text></g><g transform="translate(602 202) rotate(0 9.968040466308594 70)"><text x="0" y="24.528" font-family="Virgil, Segoe UI Emoji" font-size="28px" fill="#1e1e1e" text-anchor="start" style="white-space: pre;" direction="ltr" dominant-baseline="alphabetic">1</text><text x="0" y="59.528" font-family="Virgil, Segoe UI Emoji" font-size="28px" fill="#1e1e1e" text-anchor="start" style="white-space: pre;" direction="ltr" dominant-baseline="alphabetic">2</text><text x="0" y="94.52799999999999" font-family="Virgil, Segoe UI Emoji" font-size="28px" fill="#1e1e1e" text-anchor="start" style="white-space: pre;" direction="ltr" dominant-baseline="alphabetic">1</text><text x="0" y="129.528" font-family="Virgil, Segoe UI Emoji" font-size="28px" fill="#1e1e1e" text-anchor="start" style="white-space: pre;" direction="ltr" dominant-baseline="alphabetic">3</text></g><g transform="translate(255 10) rotate(0 9.632041931152344 17.5)"><text x="0" y="24.528" font-family="Virgil, Segoe UI Emoji" font-size="28px" fill="#e03131" text-anchor="start" style="white-space: pre;" direction="ltr" dominant-baseline="alphabetic">0</text></g><g stroke-linecap="round"><g transform="translate(514 40) rotate(0 26.5 -0.5)"><path d="M-0.92 -1.06 C7.95 -1.06, 44.14 -0.54, 53.28 -0.7 M0.8 1 C9.53 0.67, 43.67 -2.29, 52.47 -2.67" stroke="#e03131" stroke-width="2" fill="none"></path></g></g><mask></mask><g stroke-linecap="round"><g transform="translate(513 43) rotate(0 30 19.5)"><path d="M-1.13 0.42 C9.01 6.75, 49.4 32.7, 59.78 39.08 M0.48 -0.41 C10.53 6.66, 48.63 33.95, 58.71 40.66" stroke="#e03131" stroke-width="2" fill="none"></path></g></g><mask></mask><g transform="translate(10 363) rotate(0 108.22046661376953 52.5)"><text x="0" y="24.528" font-family="Virgil, Segoe UI Emoji" font-size="28px" fill="#e03131" text-anchor="start" style="white-space: pre;" direction="ltr" dominant-baseline="alphabetic">Não pode fazer</text><text x="0" y="59.528" font-family="Virgil, Segoe UI Emoji" font-size="28px" fill="#e03131" text-anchor="start" style="white-space: pre;" direction="ltr" dominant-baseline="alphabetic">multicast</text><text x="0" y="94.52799999999999" font-family="Virgil, Segoe UI Emoji" font-size="28px" fill="#e03131" text-anchor="start" style="white-space: pre;" direction="ltr" dominant-baseline="alphabetic">primeiro nivel</text></g><g stroke-linecap="round"><g transform="translate(49 361) rotate(0 4.5 -117)"><path d="M-0.91 -1.2 C0.43 -40.14, 6.45 -194.74, 8.11 -233.54 M0.81 0.79 C2.53 -38.53, 9.1 -196.51, 10.36 -235.42" stroke="#e03131" stroke-width="2" fill="none"></path></g><g transform="translate(49 361) rotate(0 4.5 -117)"><path d="M18.02 -211.62 C13.67 -220.4, 14.1 -226.02, 10.36 -235.42 M18.02 -211.62 C15.11 -219.69, 13.22 -224.92, 10.36 -235.42" stroke="#e03131" stroke-width="2" fill="none"></path></g><g transform="translate(49 361) rotate(0 4.5 -117)"><path d="M0.93 -212.26 C1.78 -220.72, 7.42 -226.15, 10.36 -235.42 M0.93 -212.26 C3.16 -220.31, 6.41 -225.34, 10.36 -235.42" stroke="#e03131" stroke-width="2" fill="none"></path></g></g><mask></mask><g stroke-linecap="round"><g transform="translate(57 125) rotate(0 32 -18)"><path d="M-0.61 -0.43 C9.75 -6.54, 52.22 -29.76, 63.1 -35.59 M1.26 -1.7 C11.92 -7.67, 54.85 -31.54, 65.33 -37.5" stroke="#e03131" stroke-width="2" fill="none"></path></g><g transform="translate(57 125) rotate(0 32 -18)"><path d="M49.03 -18.55 C54.27 -27.09, 61.78 -31.67, 65.33 -37.5 M49.03 -18.55 C55.25 -25.45, 60.05 -32.56, 65.33 -37.5" stroke="#e03131" stroke-width="2" fill="none"></path></g><g transform="translate(57 125) rotate(0 32 -18)"><path d="M40.66 -33.46 C49.18 -36.36, 59.83 -35.34, 65.33 -37.5 M40.66 -33.46 C49.76 -35.12, 57.47 -37.03, 65.33 -37.5" stroke="#e03131" stroke-width="2" fill="none"></path></g></g><mask></mask><g stroke-linecap="round" transform="translate(130 16) rotate(0 15 78)"><path d="M7.5 0 C9.34 -0.13, 14.96 -0.3, 22.5 0 M7.5 0 C11.65 0.33, 16.99 0.5, 22.5 0 M22.5 0 C29.21 1.45, 29.58 1.13, 30 7.5 M22.5 0 C29.62 -0.25, 30.37 2.77, 30 7.5 M30 7.5 C30.42 44.94, 30.49 82.26, 30 148.5 M30 7.5 C30.77 50.77, 31.18 95.45, 30 148.5 M30 148.5 C31.41 154.93, 27.67 155.36, 22.5 156 M30 148.5 C31.54 151.68, 27.51 155.08, 22.5 156 M22.5 156 C18.52 155.58, 15.25 155.6, 7.5 156 M22.5 156 C16.98 155.78, 12.82 156.66, 7.5 156 M7.5 156 C1.59 157.54, -0.23 151.78, 0 148.5 M7.5 156 C2.36 157.34, 1.82 154.89, 0 148.5 M0 148.5 C-1.29 102.11, 1.53 57.52, 0 7.5 M0 148.5 C-0.54 106.46, -0.08 65.63, 0 7.5 M0 7.5 C0.43 2.08, 3.32 -1.25, 7.5 0 M0 7.5 C0.67 2.43, 1.12 -0.18, 7.5 0" stroke="#e03131" stroke-width="2" fill="none"></path></g><g stroke-linecap="round"><g transform="translate(517 124) rotate(0 30.5 -1.5)"><path d="M0.88 -0.37 C11.07 -0.82, 51.6 -1.44, 61.79 -1.93 M-0.11 -1.6 C9.92 -2.44, 50.94 -3.4, 61.25 -3.5" stroke="#e03131" stroke-width="2" fill="none"></path></g></g><mask></mask><g stroke-linecap="round"><g transform="translate(516 124) rotate(0 30.5 16)"><path d="M1.01 -0.13 C11.02 5.31, 51.32 26.51, 61.19 31.67 M0.08 -1.25 C9.86 4.45, 49.9 27.57, 60.34 33.03" stroke="#e03131" stroke-width="2" fill="none"></path></g></g><mask></mask><g transform="translate(252 51) rotate(0 3.7940139770507812 17.5)"><text x="0" y="24.528" font-family="Virgil, Segoe UI Emoji" font-size="28px" fill="#1971c2" text-anchor="start" style="white-space: pre;" direction="ltr" dominant-baseline="alphabetic">1</text></g><g stroke-linecap="round"><g transform="translate(514 244) rotate(0 34 -14)"><path d="M-0.06 -1.12 C11.44 -5.65, 57.09 -22.91, 68.63 -27.58 M-1.55 0.9 C9.88 -3.96, 56.25 -24.6, 68.01 -29.48" stroke="#1971c2" stroke-width="2" fill="none"></path></g></g><mask></mask><g transform="translate(653 216) rotate(0 91.82638549804688 35)"><text x="0" y="24.528" font-family="Virgil, Segoe UI Emoji" font-size="28px" fill="#f08c00" text-anchor="start" style="white-space: pre;" direction="ltr" dominant-baseline="alphabetic">forca 2 usar</text><text x="0" y="59.528" font-family="Virgil, Segoe UI Emoji" font-size="28px" fill="#f08c00" text-anchor="start" style="white-space: pre;" direction="ltr" dominant-baseline="alphabetic">rede de cima</text></g><g stroke-linecap="round"><g transform="translate(582 246) rotate(0 -31.5 -19.5)"><path d="M-0.56 -0.33 C-11.25 -6.93, -53.17 -33.36, -63.77 -39.74 M1.34 -1.54 C-8.98 -8, -50.93 -32.05, -61.46 -38.59" stroke="#f08c00" stroke-width="2" fill="none"></path></g></g><mask></mask><g stroke-linecap="round"><g transform="translate(170 40) rotate(0 34.5 0)"><path d="M-0.81 -1.2 C10.75 -1.15, 57.77 -0.14, 69.4 0.08 M0.96 0.79 C12.4 1.07, 57.45 1.54, 68.66 1.67" stroke="#e03131" stroke-width="2" fill="none"></path></g></g><mask></mask><g stroke-linecap="round"><g transform="translate(170 73) rotate(0 32.5 0.5)"><path d="M0.7 0.81 C11.5 1.04, 53.42 0.76, 64.11 0.63 M-0.4 0.19 C10.85 0.66, 55.63 1.87, 66.36 1.98" stroke="#1971c2" stroke-width="2" fill="none"></path></g></g><mask></mask><g stroke-linecap="round"><g transform="translate(169 126) rotate(0 32 0.5)"><path d="M0.44 0.78 C11.34 0.83, 54 0.01, 64.78 -0.1 M-0.79 0.14 C10.07 0.33, 53.29 0.71, 64.23 0.87" stroke="#f08c00" stroke-width="2" fill="none"></path></g></g><mask></mask><g stroke-linecap="round"><g transform="translate(312 75) rotate(0 65.5 18.5)"><path d="M-0.48 -1.04 C21.41 4.99, 109.95 30.86, 132.04 37.05 M1.47 1.03 C23.23 7.2, 109.91 32.63, 131.64 38.61" stroke="#f08c00" stroke-width="2" fill="none"></path></g></g><mask></mask><g stroke-linecap="round"><g transform="translate(319 48) rotate(0 58 -1)"><path d="M0.89 -0.67 C20.58 -1.07, 97.9 -2.43, 117.05 -2.48 M-0.11 1.6 C19.61 1.37, 97.48 -0.47, 116.66 -1.2" stroke="#e03131" stroke-width="2" fill="none"></path></g></g><mask></mask><g stroke-linecap="round"><g transform="translate(334 47) rotate(0 57.5 12.5)"><path d="M-0.62 0.1 C18.34 3.99, 94.85 19.71, 114.15 23.9 M1.26 -0.89 C20.56 3.05, 97.55 20.27, 116.41 24.87" stroke="#e03131" stroke-width="2" fill="none"></path></g></g><mask></mask><g stroke-linecap="round"><g transform="translate(165 150) rotate(0 40.5 12.5)"><path d="M0.65 -0.58 C12.46 -0.28, 56.76 -3.22, 70.19 1.09 C83.62 5.4, 79.24 21.45, 81.23 25.29 M-0.47 1.74 C11.26 2.21, 55.83 -2.02, 69.34 2.15 C82.85 6.32, 78.93 23, 80.58 26.75" stroke="#2f9e44" stroke-width="2" fill="none"></path></g></g><mask></mask><g transform="translate(306 248) rotate(0 9.534042358398438 17.5)"><text x="0" y="24.528" font-family="Virgil, Segoe UI Emoji" font-size="28px" fill="#2f9e44" text-anchor="start" style="white-space: pre;" direction="ltr" dominant-baseline="alphabetic">3</text></g><g transform="translate(318.2059860229492 204.5) rotate(0 3.7940139770507812 17.5)"><text x="0" y="24.528" font-family="Virgil, Segoe UI Emoji" font-size="28px" fill="#1971c2" text-anchor="start" style="white-space: pre;" direction="ltr" dominant-baseline="alphabetic">1</text></g><g transform="translate(442.2059860229492 250.5) rotate(0 3.7940139770507812 17.5)"><text x="0" y="24.528" font-family="Virgil, Segoe UI Emoji" font-size="28px" fill="#1971c2" text-anchor="start" style="white-space: pre;" direction="ltr" dominant-baseline="alphabetic">1</text></g><g stroke-linecap="round"><g transform="translate(333 230) rotate(0 53.5 29.5)"><path d="M-0.08 0.6 C18.07 10.28, 90.26 49.18, 107.91 58.99 M-1.58 -0.13 C16.58 9.68, 89.16 50.95, 107.44 60.53" stroke="#1971c2" stroke-width="2" fill="none"></path></g></g><mask></mask><g transform="translate(469 369) rotate(0 186.49478149414062 35)"><text x="0" y="24.528" font-family="Virgil, Segoe UI Emoji" font-size="28px" fill="#1971c2" text-anchor="start" style="white-space: pre;" direction="ltr" dominant-baseline="alphabetic">só pode passar 1 ou 3....</text><text x="0" y="59.528" font-family="Virgil, Segoe UI Emoji" font-size="28px" fill="#1971c2" text-anchor="start" style="white-space: pre;" direction="ltr" dominant-baseline="alphabetic">Portanto não tem solução.</text></g></svg>